  0
SECTION
  2
HEADER
  9
$ACADVER
  1
AC1009
  9
$INSBASE
 10
0.0
 20
0.0
 30
0.0
  9
$EXTMIN
 10
0.0
 20
0.0
 30
0.0
  9
$EXTMAX
 10
0.0
 20
0.0
 30
0.0
  0
ENDSEC
  0
SECTION
  2
TABLES
  0
TABLE
  2
VPORT
 70
0
  0
ENDTAB
  0
TABLE
  2
LTYPE
 70
1
  0
LTYPE
  2
CONTINUOUS
 70
0
  3
Solid line
 72
65
 73
0
 40
0.0
  0
ENDTAB
  0
TABLE
  2
LAYER
 70
1
  0
LAYER
  2
0
 70
64
 62
7
  6
continuous
  0
ENDTAB
  0
TABLE
  2
STYLE
 70
1
  0
STYLE
  2
STANDARD
 70
0
 40
0
 41
1.0
 50
0.0
 71
0
 42
1
 3
ARIAL.TTF
 4

  0
ENDTAB
  0
TABLE
  2
VIEW
 70
0
  0
ENDTAB
  0
ENDSEC
  0
SECTION
  2
BLOCKS
  0
BLOCK
  8
0
  2
TEST001
 70
0
 10
0.0
 20
0.0
 30
0.0
  3
TEST001
  0
LINE
  8
0
 62
0
 10
60.00000000000007
 20
60.00000000000001
 30
0.0
 11
60.000000000000036
 21
110.0
 31
0.0
  0
LINE
  8
0
 62
0
 10
10.00000000000003
 20
60.0
 30
0.0
 11
60.00000000000003
 21
60.00000000000001
 31
0.0
  0
LINE
  8
0
 62
0
 10
60.00000000000003
 20
110.00000000000004
 30
0.0
 11
10.000000000000028
 21
110.00000000000004
 31
0.0
  0
LINE
  8
0
 62
0
 10
10.000000000000027
 20
63.99998333333332
 30
0.0
 11
10.00000000000003
 21
60.00000000000003
 31
0.0
  0
LINE
  8
0
 62
0
 10
10.000000000000002
 20
110.00000000000001
 30
0.0
 11
10.000000000000002
 21
110.0000166666667
 31
0.0
  0
LINE
  8
0
 62
0
 10
10.00000000000002
 20
63.99998333333332
 30
0.0
 11
1.9539925233402755e-14
 21
63.99998333333331
 31
0.0
  0
LINE
  8
0
 62
0
 10
10.000000000000002
 20
110.00001666666668
 30
0.0
 11
1.7763568394002505e-15
 21
110.00001666666668
 31
0.0
  0
LINE
  8
0
 62
0
 10
7.105427357601002e-15
 20
97.33331666666669
 30
0.0
 11
2.1854185950433954e-15
 21
110.0000166666667
 31
0.0
  0
LINE
  8
0
 62
0
 10
10.000000000000007
 20
97.33331666666669
 30
0.0
 11
7.105427357601002e-15
 21
97.33331666666669
 31
0.0
  0
LINE
  8
0
 62
0
 10
10.000000000000002
 20
97.33331666666669
 30
0.0
 11
10.000000000000004
 21
93.33335
 31
0.0
  0
LINE
  8
0
 62
0
 10
10.000000000000009
 20
93.33335
 30
0.0
 11
8.881784197001252e-15
 21
93.33335
 31
0.0
  0
LINE
  8
0
 62
0
 10
1.4210854715202004e-14
 20
80.66665
 30
0.0
 11
9.290845952644397e-15
 21
93.33335000000001
 31
0.0
  0
LINE
  8
0
 62
0
 10
10.000000000000014
 20
80.66665
 30
0.0
 11
1.4210854715202004e-14
 21
80.66665
 31
0.0
  0
LINE
  8
0
 62
0
 10
10.000000000000014
 20
80.66665
 30
0.0
 11
10.000000000000018
 21
76.66668333333332
 31
0.0
  0
LINE
  8
0
 62
0
 10
10.000000000000014
 20
76.66668333333331
 30
0.0
 11
1.4210854715202004e-14
 21
76.66668333333331
 31
0.0
  0
LINE
  8
0
 62
0
 10
1.9539925233402755e-14
 20
63.99998333333331
 30
0.0
 11
1.461991647084515e-14
 21
76.66668333333331
 31
0.0
  0
ENDBLK
  0
BLOCK
  8
0
  2
TEST
 70
0
 10
0.0
 20
0.0
 30
0.0
  3
TEST
  0
LINE
  8
0
 62
0
 10
50.0
 20
50.0
 30
0.0
 11
0.0
 21
50.0
 31
0.0
  0
LINE
  8
0
 62
0
 10
50.0
 20
49.404174666666684
 30
0.0
 11
50.0
 21
50.0
 31
0.0
  0
LINE
  8
0
 62
0
 10
0.0
 20
50.0
 30
0.0
 11
0.0
 21
0.0
 31
0.0
  0
LINE
  8
0
 62
0
 10
50.0
 20
49.404174666666684
 30
0.0
 11
40.80474432488518
 21
49.404174666666684
 31
0.0
  0
ARC
  8
0
 62
0
 10
40.188905
 20
49.04861966666668
 30
0.0
 40
0.71111
 50
29.999999999997662
 51
-180.0
  0
ARC
  8
0
 62
0
 10
40.188905
 20
49.04861966666668
 30
0.0
 40
0.71111
 50
-180.0
 51
-119.99999999999895
  0
LINE
  8
0
 62
0
 10
39.83335
 20
39.04226899155185
 30
0.0
 11
39.83335
 21
48.43278034178152
 31
0.0
  0
ARC
  8
0
 62
0
 10
40.188905
 20
38.426429666666685
 30
0.0
 40
0.71111
 50
119.99999999999895
 51
-180.0
  0
ARC
  8
0
 62
0
 10
40.188905
 20
38.426429666666685
 30
0.0
 40
0.71111
 50
-180.0
 51
-29.99999999999816
  0
LINE
  8
0
 62
0
 10
50.0
 20
38.07087466666668
 30
0.0
 11
40.80474432488517
 21
38.07087466666668
 31
0.0
  0
LINE
  8
0
 62
0
 10
50.0
 20
32.737508000000005
 30
0.0
 11
50.0
 21
38.07087466666668
 31
0.0
  0
LINE
  8
0
 62
0
 10
50.0
 20
32.737508000000005
 30
0.0
 11
40.80474432488517
 21
32.737508000000005
 31
0.0
  0
ARC
  8
0
 62
0
 10
40.188905
 20
32.381953
 30
0.0
 40
0.71111
 50
29.999999999997662
 51
-180.0
  0
ARC
  8
0
 62
0
 10
40.188905
 20
32.381953
 30
0.0
 40
0.71111
 50
-180.0
 51
-119.99999999999895
  0
LINE
  8
0
 62
0
 10
39.83335
 20
22.37560232488517
 30
0.0
 11
39.83335
 21
31.766113675114838
 31
0.0
  0
ARC
  8
0
 62
0
 10
40.188905000000005
 20
21.759763000000003
 30
0.0
 40
0.71111
 50
119.99999999999879
 51
-180.0
  0
ARC
  8
0
 62
0
 10
40.188905000000005
 20
21.759763000000003
 30
0.0
 40
0.71111
 50
-180.0
 51
-29.999999999997904
  0
LINE
  8
0
 62
0
 10
50.0
 20
21.404208000000004
 30
0.0
 11
40.80474432488517
 21
21.404208000000004
 31
0.0
  0
LINE
  8
0
 62
0
 10
50.0
 20
16.070841333333327
 30
0.0
 11
50.0
 21
21.404208000000004
 31
0.0
  0
LINE
  8
0
 62
0
 10
50.0
 20
16.070841333333327
 30
0.0
 11
40.80474432488517
 21
16.070841333333327
 31
0.0
  0
ARC
  8
0
 62
0
 10
40.188905000000005
 20
15.715286333333326
 30
0.0
 40
0.71111
 50
29.999999999998032
 51
-180.0
  0
ARC
  8
0
 62
0
 10
40.188905000000005
 20
15.715286333333326
 30
0.0
 40
0.71111
 50
-180.0
 51
-119.99999999999888
  0
LINE
  8
0
 62
0
 10
39.83335
 20
5.70893565821849
 30
0.0
 11
39.83335
 21
15.099447008448161
 31
0.0
  0
ARC
  8
0
 62
0
 10
40.188905000000005
 20
5.093096333333325
 30
0.0
 40
0.71111
 50
119.99999999999888
 51
-180.0
  0
ARC
  8
0
 62
0
 10
40.188905000000005
 20
5.093096333333325
 30
0.0
 40
0.71111
 50
-180.0
 51
-30.000000000002153
  0
LINE
  8
0
 62
0
 10
50.0
 20
4.737541333333327
 30
0.0
 11
40.80474432488513
 21
4.7375413333333265
 31
0.0
  0
LINE
  8
0
 62
0
 10
50.0
 20
0.0
 30
0.0
 11
50.0
 21
4.737541333333327
 31
0.0
  0
LINE
  8
0
 62
0
 10
0.0
 20
0.0
 30
0.0
 11
50.0
 21
0.0
 31
0.0
  0
ENDBLK
  0
ENDSEC
  0
SECTION
  2
ENTITIES
  0
INSERT
  2
TEST001
  8
0
 62
0
 10
0.0
 20
0.0
 30
0.0
  0
INSERT
  2
TEST
  8
0
 62
0
 10
0.0
 20
0.0
 30
0.0
  0
ENDSEC
  0
EOF
